<svg width="28" height="30" viewBox="0 0 28 30" fill="none" xmlns="http://www.w3.org/2000/svg">
<path fill-rule="evenodd" clip-rule="evenodd" d="M0 9.33333C0 14.488 4.17868 18.6667 9.33333 18.6667H21.3333C25.0152 18.6667 28 15.6819 28 12C28 8.3181 25.0152 5.33333 21.3333 5.33333C20.1657 5.33333 19.0681 5.63352 18.1137 6.16094C16.8153 2.56794 13.3742 0 9.33333 0C4.17868 0 0 4.17868 0 9.33333Z" fill="url(#paint0_linear_103_749)"/>
<path fill-rule="evenodd" clip-rule="evenodd" d="M18.0233 6.40128L17.9569 6.21758C16.6816 2.68851 13.3018 0.166667 9.33333 0.166667C4.27072 0.166667 0.166667 4.27072 0.166667 9.33333C0.166667 14.3959 4.27072 18.5 9.33333 18.5H21.3333C24.9232 18.5 27.8333 15.5899 27.8333 12C27.8333 8.41015 24.9232 5.5 21.3333 5.5C20.1946 5.5 19.1247 5.79269 18.1943 6.30681L18.0233 6.40128ZM18.055 6.00301C16.7139 2.49293 13.3147 0 9.33333 0C4.17868 0 0 4.17868 0 9.33333C0 14.488 4.17868 18.6667 9.33333 18.6667H21.3333C25.0152 18.6667 28 15.6819 28 12C28 8.3181 25.0152 5.33333 21.3333 5.33333C20.2257 5.33333 19.1812 5.60343 18.2621 6.08136C18.2123 6.10727 18.1628 6.1338 18.1137 6.16094C18.0946 6.10807 18.075 6.05542 18.055 6.00301Z" fill="url(#paint1_radial_103_749)" fill-opacity="0.6"/>
<path d="M9.04164 22.6042L9.02819 26.9964C9.0253 27.9417 8.4221 28.7736 7.53071 29.0617C6.38697 29.4312 5.1539 28.7943 4.77657 27.639C4.48249 26.7386 4.7918 25.7549 5.54445 25.1969L9.04164 22.6042Z" fill="url(#paint2_linear_103_749)"/>
<path d="M16.0416 22.6042L16.0282 26.9964C16.0253 27.9417 15.4221 28.7736 14.5307 29.0617C13.387 29.4312 12.1539 28.7943 11.7766 27.639C11.4825 26.7386 11.7918 25.7549 12.5445 25.1969L16.0416 22.6042Z" fill="url(#paint3_linear_103_749)"/>
<path d="M23.0416 22.6042L23.0282 26.9964C23.0253 27.9417 22.4221 28.7736 21.5307 29.0617C20.387 29.4312 19.1539 28.7943 18.7766 27.639C18.4825 26.7386 18.7918 25.7549 19.5445 25.1969L23.0416 22.6042Z" fill="url(#paint4_linear_103_749)"/>
<path d="M13.4166 15.1667L13.4032 19.5589C13.4003 20.5042 12.7971 21.3361 11.9057 21.6242C10.762 21.9938 9.5289 21.3568 9.15157 20.2015C8.85749 19.3011 9.1668 18.3174 9.91945 17.7594L13.4166 15.1667Z" fill="url(#paint5_linear_103_749)"/>
<path d="M20.4166 15.1667L20.4032 19.5589C20.4003 20.5042 19.7971 21.3361 18.9057 21.6242C17.762 21.9938 16.5289 21.3568 16.1516 20.2015C15.8575 19.3011 16.1668 18.3174 16.9195 17.7594L20.4166 15.1667Z" fill="url(#paint6_linear_103_749)"/>
<defs>
<linearGradient id="paint0_linear_103_749" x1="3.51109e-07" y1="0.311111" x2="27.7085" y2="20.4441" gradientUnits="userSpaceOnUse">
<stop stop-color="#F8F8F8"/>
<stop offset="1" stop-color="#E5E5E5"/>
</linearGradient>
<radialGradient id="paint1_radial_103_749" cx="0" cy="0" r="1" gradientUnits="userSpaceOnUse" gradientTransform="translate(12.5 12.8333) rotate(21.1048) scale(10.183 16.0882)">
<stop stop-color="#AEAEAE"/>
<stop offset="1" stop-color="#E9E9E9"/>
</radialGradient>
<linearGradient id="paint2_linear_103_749" x1="7.26441" y1="21.6862" x2="8.21712" y2="30.0708" gradientUnits="userSpaceOnUse">
<stop stop-color="#41AEFF"/>
<stop offset="1" stop-color="#0996FF"/>
</linearGradient>
<linearGradient id="paint3_linear_103_749" x1="14.2644" y1="21.6862" x2="15.2171" y2="30.0708" gradientUnits="userSpaceOnUse">
<stop stop-color="#41AEFF"/>
<stop offset="1" stop-color="#0996FF"/>
</linearGradient>
<linearGradient id="paint4_linear_103_749" x1="21.2644" y1="21.6862" x2="22.2171" y2="30.0708" gradientUnits="userSpaceOnUse">
<stop stop-color="#41AEFF"/>
<stop offset="1" stop-color="#0996FF"/>
</linearGradient>
<linearGradient id="paint5_linear_103_749" x1="11.6394" y1="14.2487" x2="12.5921" y2="22.6334" gradientUnits="userSpaceOnUse">
<stop stop-color="#41AEFF"/>
<stop offset="1" stop-color="#0996FF"/>
</linearGradient>
<linearGradient id="paint6_linear_103_749" x1="18.6394" y1="14.2487" x2="19.5921" y2="22.6334" gradientUnits="userSpaceOnUse">
<stop stop-color="#41AEFF"/>
<stop offset="1" stop-color="#0996FF"/>
</linearGradient>
</defs>
</svg>
