<svg width="24" height="24" viewBox="0 0 24 24" fill="none" xmlns="http://www.w3.org/2000/svg">
<path d="M24 12C24 18.6274 18.6274 24 12 24C5.37258 24 0 18.6274 0 12C0 5.37258 5.37258 0 12 0C18.6274 0 24 5.37258 24 12Z" fill="url(#paint0_linear_103_593)"/>
<path fill-rule="evenodd" clip-rule="evenodd" d="M12 23.8125C18.5239 23.8125 23.8125 18.5239 23.8125 12C23.8125 5.47614 18.5239 0.1875 12 0.1875C5.47614 0.1875 0.1875 5.47614 0.1875 12C0.1875 18.5239 5.47614 23.8125 12 23.8125ZM12 24C18.6274 24 24 18.6274 24 12C24 5.37258 18.6274 0 12 0C5.37258 0 0 5.37258 0 12C0 18.6274 5.37258 24 12 24Z" fill="url(#paint1_radial_103_593)" fill-opacity="0.6"/>
<defs>
<linearGradient id="paint0_linear_103_593" x1="0" y1="0" x2="24" y2="24" gradientUnits="userSpaceOnUse">
<stop stop-color="#F8E352"/>
<stop offset="1" stop-color="#EFB61F"/>
</linearGradient>
<radialGradient id="paint1_radial_103_593" cx="0" cy="0" r="1" gradientUnits="userSpaceOnUse" gradientTransform="translate(9.5625 9) rotate(80.7701) scale(15.1968)">
<stop stop-color="#E26E03"/>
<stop offset="1" stop-color="#F6DC4A"/>
</radialGradient>
</defs>
</svg>
